Hanif_Shallow_2_5_grf.mot
version=1
nRows=26
nColumns=19
inDegrees=yes
endheader
time	right_ground_force_vx	right_ground_force_vy	right_ground_force_vz	right_ground_force_px	right_ground_force_py	right_ground_force_pz	right_ground_torque_x	right_ground_torque_y	right_ground_torque_z	left_ground_force_vx	left_ground_force_vy	left_ground_force_vz	left_ground_force_px	left_ground_force_py	left_ground_force_pz	left_ground_torque_x	left_ground_torque_y	left_ground_torque_z
0.200000	1.752610	257.102000	54.388000	0.219627	0.000000	-1.441390	-16.608900	-0.411403	5.161060	-5.061950	283.886000	-55.613100	0.238424	0.000000	-0.965648	17.830400	-0.093735	11.407200
0.205000	1.598540	256.291000	54.666700	0.219665	0.000000	-1.441170	-16.611600	-0.468904	5.147180	-5.143740	283.716000	-55.616600	0.239169	0.000000	-0.965943	17.905900	-0.135413	11.629800
0.210000	1.752820	255.178000	53.918500	0.220078	0.000000	-1.441780	-16.385300	-0.548572	5.212520	-4.967030	284.341000	-55.232600	0.239149	0.000000	-0.965906	17.932200	-0.130085	11.637600
0.215000	1.734760	255.344000	54.005500	0.219820	0.000000	-1.440660	-16.681200	-0.464781	5.165130	-5.627970	284.137000	-55.456500	0.238761	0.000000	-0.965662	17.857000	-0.147838	11.530700
0.220000	1.164850	255.017000	53.948400	0.220345	0.000000	-1.441240	-16.513600	-0.605989	5.276370	-5.296020	285.741000	-55.457300	0.238362	0.000000	-0.966007	18.050300	-0.060845	11.450900
0.225000	1.759790	255.097000	53.867000	0.219575	0.000000	-1.440350	-16.742700	-0.479802	5.090600	-6.235370	287.387000	-55.332500	0.238201	0.000000	-0.965667	18.067500	-0.164229	11.492400
0.230000	0.977541	253.862000	53.257500	0.220369	0.000000	-1.440140	-16.716300	-0.533049	5.273130	-5.654640	290.807000	-55.932000	0.237820	0.000000	-0.965172	18.129100	-0.051170	11.482700
0.235000	0.564711	254.517000	53.077900	0.221263	0.000000	-1.440660	-16.629600	-0.606389	5.513000	-6.198660	289.513000	-56.444700	0.238892	0.000000	-0.965762	18.226900	-0.054600	11.774400
0.240000	1.193960	253.427000	52.721500	0.221257	0.000000	-1.440120	-16.694700	-0.620970	5.474740	-6.395040	292.378000	-56.756400	0.238431	0.000000	-0.965615	18.362900	0.031134	11.731500
0.245000	0.894863	253.743000	53.201700	0.222373	0.000000	-1.438880	-17.029500	-0.668864	5.773830	-6.163320	294.446000	-57.205300	0.238179	0.000000	-0.965984	18.598600	0.036023	11.734400
0.250000	0.855253	253.634000	52.308000	0.222073	0.000000	-1.439500	-16.864900	-0.616013	5.697880	-5.892990	298.165000	-57.770300	0.238637	0.000000	-0.965355	18.642400	0.052526	12.013500
0.255000	0.747262	253.019000	52.247200	0.222481	0.000000	-1.438940	-16.965000	-0.579309	5.800720	-6.143210	297.502000	-57.853300	0.238633	0.000000	-0.965125	18.536700	-0.012305	12.004800
0.260000	0.695614	250.044000	51.832800	0.223130	0.000000	-1.438520	-16.871900	-0.736105	5.869850	-5.665260	297.796000	-57.755400	0.239054	0.000000	-0.965244	18.583200	0.121167	12.112600
0.265000	0.373213	248.781000	51.289600	0.223510	0.000000	-1.436880	-17.194500	-0.696272	5.948550	-6.185520	298.046000	-58.098600	0.238072	0.000000	-0.965509	18.682100	0.121559	11.830200
0.270000	-0.196549	248.737000	50.882400	0.224276	0.000000	-1.437020	-17.157300	-0.784662	6.133200	-5.730100	297.490000	-57.684800	0.238226	0.000000	-0.965433	18.622500	0.004547	11.868000
0.275000	-0.702415	247.264000	50.100200	0.224842	0.000000	-1.437440	-16.955000	-0.806672	6.240990	-5.917490	298.080000	-57.865300	0.237922	0.000000	-0.965491	18.678800	-0.032721	11.808100
0.280000	-0.920580	245.653000	49.044800	0.224861	0.000000	-1.437410	-16.851100	-0.883020	6.186880	-5.656150	297.565000	-57.219100	0.238291	0.000000	-0.965926	18.773300	-0.023157	11.888100
0.285000	-1.683900	245.235000	48.367600	0.224789	0.000000	-1.436890	-16.951600	-0.927824	6.155610	-5.439300	299.345000	-57.173500	0.237576	0.000000	-0.964983	18.600200	-0.037083	11.729800
0.290000	-2.401330	241.409000	47.685800	0.226214	0.000000	-1.437100	-16.637100	-0.963151	6.417690	-4.880630	298.777000	-56.842800	0.238207	0.000000	-0.966201	18.924600	-0.066147	11.899900
0.295000	-2.390540	238.281000	46.634500	0.226981	0.000000	-1.434670	-16.999800	-1.118750	6.489670	-4.932590	300.526000	-56.662100	0.238895	0.000000	-0.964785	18.610100	-0.060269	12.173400
0.300000	-2.709890	237.163000	45.496500	0.228226	0.000000	-1.435480	-16.728100	-1.121180	6.762130	-4.930900	300.345000	-56.784400	0.237964	0.000000	-0.966697	19.173500	-0.116740	11.891300
0.305000	-3.409310	234.968000	44.675500	0.228211	0.000000	-1.434320	-16.847800	-1.194170	6.687650	-4.318670	303.456000	-56.201100	0.238751	0.000000	-0.965948	19.138300	-0.111087	12.233500
0.310000	-3.784950	233.229000	43.263800	0.229274	0.000000	-1.434610	-16.653600	-1.288620	6.873630	-4.373430	300.861000	-55.824500	0.238556	0.000000	-0.966344	19.094500	-0.094073	12.068100
0.315000	-4.124100	230.297000	42.917500	0.229601	0.000000	-1.432830	-16.854900	-1.323880	6.863210	-4.467710	301.698000	-56.387600	0.238280	0.000000	-0.966390	19.163700	-0.199939	12.042700
0.320000	-4.382640	229.855000	42.394400	0.230495	0.000000	-1.433400	-16.689900	-1.429230	7.042890	-4.938040	299.317000	-55.696300	0.239178	0.000000	-0.966962	19.188400	-0.135139	12.216500
0.325000	-5.248450	227.179000	41.523600	0.231581	0.000000	-1.432690	-16.659500	-1.512980	7.208050	-5.086980	299.100000	-55.514300	0.238597	0.000000	-0.967211	19.249800	-0.136461	12.027900
